<svg xmlns="http://www.w3.org/2000/svg" xmlns:xlink="http://www.w3.org/1999/xlink" width="512pt" height="512pt" viewBox="0 0 512 512"><linearGradient id="a" x1="74.981" x2="437.019" y1="74.981" y2="437.019" gradientUnits="userSpaceOnUse"><stop offset="0" stop-color="#fbdf65"/><stop offset="1" stop-color="#faad57"/></linearGradient><linearGradient id="b" x1="99.667" x2="412.333" y1="256" y2="256" gradientUnits="userSpaceOnUse"><stop offset="0" stop-color="#2b5c74"/><stop offset="1" stop-color="#203f49"/></linearGradient><path fill="url(#a)" d="m512 256c0 141.386719-114.613281 256-256 256s-256-114.613281-256-256 114.613281-256 256-256 256 114.613281 256 256zm0 0"/><path fill="url(#b)" d="m403.894531 218.75 8.4375-64.121094h-41.542969l7.234376-54.960937h-64.28125l-7.230469 54.960937h-74.347657l7.234376-54.960937h-64.28125l-7.230469 54.960937h-41.542969l-8.4375 64.121094h41.542969l-9.804688 74.503906h-41.542969l-8.4375 64.117188h41.546876l-7.234376 54.964844h64.28125l7.230469-54.964844h74.347657l-7.234376 54.964844h64.28125l7.230469-54.964844h41.542969l8.4375-64.117188h-41.542969l9.800781-74.503906zm-115.625 74.5h-74.34375l9.804688-74.503906h74.34375zm0 0"/></svg>